<svg width="24" height="24" viewBox="0 0 24 24" fill="none" xmlns="http://www.w3.org/2000/svg">
<path d="M21.13 11.358L3.614 2.10798C3.324 1.95598 2.974 2.00598 2.741 2.23398C2.511 2.45998 2.448 2.81098 2.591 3.10198L6.953 12.022L2.591 20.942C2.448 21.234 2.511 21.585 2.741 21.81C2.886 21.95 3.074 22.022 3.264 22.022C3.384 22.022 3.504 21.994 3.614 21.935L21.131 12.685C21.376 12.555 21.531 12.299 21.531 12.021C21.531 11.743 21.376 11.489 21.131 11.359L21.13 11.358ZM4.948 4.50998L17.752 11.272H8.255L4.948 4.51198V4.50998ZM8.255 12.77H17.753L4.948 19.535L8.255 12.772V12.77Z" fill="#FF6600"/>
</svg>
