<svg width="24" height="24" viewBox="0 0 24 24" fill="none" xmlns="http://www.w3.org/2000/svg">
<path d="M21.697 16.468C21.677 16.452 19.557 14.828 19.594 10.438C19.614 7.90599 18.782 5.65599 17.247 4.10299C15.872 2.70999 14.01 1.93999 12.005 1.92999H11.992C9.988 1.93999 8.126 2.70999 6.75 4.10399C5.216 5.65699 4.382 7.90599 4.404 10.438C4.441 14.768 2.384 16.405 2.302 16.468C2.042 16.661 1.936 16.998 2.037 17.306C2.139 17.614 2.427 17.821 2.749 17.821H7.669C7.771 20.131 9.666 21.981 11.999 21.981C14.332 21.981 16.225 20.131 16.326 17.821H21.248C21.57 17.821 21.858 17.615 21.958 17.307C22.061 17 21.955 16.662 21.695 16.469L21.697 16.468ZM12 20.478C10.495 20.478 9.27 19.301 9.172 17.82H14.828C14.728 19.3 13.505 20.48 12 20.48V20.478ZM4.38 16.32C5.12 15.188 5.928 13.292 5.904 10.424C5.886 8.26399 6.548 6.44199 7.817 5.15699C8.91 4.04999 10.397 3.43699 12 3.42999C13.603 3.43799 15.087 4.04999 16.18 5.15799C17.45 6.44299 18.113 8.26399 18.095 10.425C18.071 13.293 18.88 15.19 19.62 16.321H4.38V16.32Z" fill="black"/>
</svg>
