<svg width="24" height="24" viewBox="0 0 24 24" fill="none" xmlns="http://www.w3.org/2000/svg">
<path d="M11.9999 11.8158C13.3549 11.8158 14.8719 11.6658 15.8399 10.5598C16.6539 9.62976 16.9179 8.19176 16.6459 6.16776C16.2659 3.34276 14.5289 1.65576 11.9999 1.65576C9.47091 1.65576 7.73391 3.34276 7.35391 6.16976C7.08191 8.19176 7.3459 9.62976 8.1599 10.5598C9.1279 11.6668 10.6449 11.8158 11.9999 11.8158ZM8.83991 6.36776C9.00191 5.16776 9.62691 3.15576 11.9999 3.15576C14.3729 3.15576 14.9979 5.16876 15.1599 6.36776C15.3669 7.91776 15.2169 8.99476 14.7099 9.57276C14.2549 10.0928 13.4439 10.3158 11.9999 10.3158C10.5559 10.3158 9.7449 10.0928 9.28991 9.57276C8.78291 8.99476 8.63291 7.91676 8.83991 6.36776ZM20.2799 19.2358C19.4029 15.7098 15.9979 13.2458 11.9999 13.2458C8.00191 13.2458 4.59691 15.7098 3.71991 19.2358C3.54791 19.9278 3.6919 20.6358 4.1149 21.1758C4.5229 21.6958 5.15491 21.9958 5.84791 21.9958H18.1519C18.8449 21.9958 19.4769 21.6958 19.8849 21.1758C20.3089 20.6358 20.4519 19.9288 20.2789 19.2358H20.2799ZM18.7039 20.2518C18.5779 20.4118 18.3879 20.4978 18.1519 20.4978H5.84791C5.61291 20.4978 5.42191 20.4128 5.29591 20.2518C5.15891 20.0778 5.11591 19.8398 5.17591 19.5978C5.88591 16.7428 8.69291 14.7478 11.9999 14.7478C15.3069 14.7478 18.1139 16.7418 18.8239 19.5978C18.8839 19.8398 18.8409 20.0778 18.7039 20.2518Z" fill="black"/>
</svg>
