<svg width="24" height="22" viewBox="0 0 24 22" fill="none" xmlns="http://www.w3.org/2000/svg">
<path d="M23.24 3.26003H20.815V0.832031C20.815 0.418031 20.479 0.0820312 20.065 0.0820312C19.651 0.0820312 19.315 0.418031 19.315 0.832031V3.26003H16.89C16.476 3.26003 16.14 3.59503 16.14 4.01003C16.14 4.42503 16.476 4.76003 16.89 4.76003H19.316V7.18403C19.316 7.59803 19.652 7.93403 20.066 7.93403C20.48 7.93403 20.816 7.59803 20.816 7.18403V4.76003H23.241C23.656 4.76003 23.991 4.42303 23.991 4.01003C23.991 3.59703 23.655 3.26003 23.241 3.26003H23.24ZM17.01 10.866C17.03 8.43203 16.228 6.26903 14.752 4.77603C13.428 3.43403 11.636 2.69203 9.70604 2.68303H9.69304C7.76304 2.69303 5.97104 3.43303 4.64704 4.77503C3.17204 6.27003 2.37004 8.43303 2.39004 10.867C2.42604 15 0.467036 16.56 0.390036 16.62C0.130036 16.813 0.0230359 17.15 0.124036 17.458C0.226036 17.766 0.514036 17.973 0.836036 17.973H5.55204C5.66204 20.199 7.49204 21.98 9.74604 21.98C12 21.98 13.829 20.2 13.94 17.973H18.565C18.885 17.973 19.169 17.767 19.272 17.463C19.375 17.159 19.272 16.82 19.017 16.625C18.935 16.561 16.974 15 17.009 10.865L17.01 10.866ZM9.74504 20.48C8.31904 20.48 7.15904 19.37 7.05104 17.972H12.439C12.331 19.372 11.171 20.479 9.74504 20.479V20.48ZM2.45504 16.473C3.15704 15.378 3.91204 13.569 3.88904 10.855C3.87204 8.79303 4.50304 7.05503 5.71404 5.83003C6.75704 4.77403 8.17204 4.19003 9.70004 4.18403C11.227 4.19103 12.643 4.77403 13.685 5.83003C14.895 7.05603 15.525 8.79303 15.508 10.855C15.486 13.569 16.24 15.378 16.945 16.473H2.45504Z" fill="#FF6600"/>
</svg>
