<svg width="15" height="15" viewBox="0 0 15 15" fill="none" xmlns="http://www.w3.org/2000/svg">
<path d="M7.5 13.5239H7.49125C5.87687 13.4939 1.21875 9.28514 1.21875 5.29889C1.21875 3.38389 2.79687 1.70264 4.59562 1.70264C6.02687 1.70264 6.98937 2.69014 7.49937 3.40889C8.00812 2.69139 8.97062 1.70264 10.4025 1.70264C12.2025 1.70264 13.78 3.38389 13.78 5.29951C13.78 9.28451 9.12125 13.4933 7.50687 13.5226H7.5V13.5239ZM4.59625 2.64076C3.29625 2.64076 2.15687 3.88326 2.15687 5.30014C2.15687 8.88764 6.55312 12.5476 7.50062 12.5864C8.44937 12.5476 12.8444 8.88826 12.8444 5.30014C12.8444 3.88326 11.705 2.64076 10.405 2.64076C8.825 2.64076 7.9425 4.47576 7.935 4.49389C7.79125 4.84514 7.2125 4.84514 7.06812 4.49389C7.05937 4.47514 6.1775 2.64076 4.59687 2.64076H4.59625Z" fill="#657786"/>
</svg>
