<svg width="24" height="22" viewBox="0 0 24 22" fill="none" xmlns="http://www.w3.org/2000/svg">
<path d="M8.8 5.20001H5.6V1.90001C5.6 1.50001 5.3 1.10001 4.8 1.10001C4.3 1.10001 4.1 1.50001 4.1 1.90001V5.20001H0.8C0.4 5.20001 0 5.50001 0 6.00001C0 6.50001 0.3 6.80001 0.8 6.80001H4.1V10.1C4.1 10.5 4.4 10.9 4.9 10.9C5.4 10.9 5.7 10.6 5.7 10.1V6.70001H9C9.4 6.70001 9.8 6.40001 9.8 5.90001C9.8 5.40001 9.3 5.20001 8.8 5.20001ZM23.8 0.300012V0.200012H23.7C23.6 0.200012 14.5 1.40001 9.3 11.9C5.5 19.5 5.7 21.8 6 21.8C6.3 21.9 9.4 15.3 12.7 12.6C17.9 11.5 19.3 9.00001 19.3 9.00001C19.3 9.00001 17.8 9.20001 17.2 9.20001C16.4 9.20001 15.8 9.00001 15.5 8.90001C16.8 7.70001 17.9 7.40001 19 7.20001C19.9 7.00001 20.8 6.80001 22 6.00001C24.2 4.40001 23.9 0.500012 23.8 0.300012Z" fill="#fff"/>
</svg>
